<svg id="location_on-24px" xmlns="http://www.w3.org/2000/svg" width="14.003" height="14.003" viewBox="0 0 14.003 14.003">
  <path id="Path_3" data-name="Path 3" d="M0,0H14V14H0Z" fill="none"/>
  <path id="Path_4" data-name="Path 4" d="M8.566,2A3.75,3.75,0,0,0,5,5.915c0,2.332,2.252,5.549,3.179,6.774a.478.478,0,0,0,.779,0c.922-1.225,3.174-4.441,3.174-6.774A3.75,3.75,0,0,0,8.566,2Zm0,5.314a1.341,1.341,0,0,1-1.273-1.4,1.341,1.341,0,0,1,1.273-1.4,1.341,1.341,0,0,1,1.273,1.4A1.341,1.341,0,0,1,8.566,7.314Z" transform="translate(-1.564 -0.626)" fill="#0f0000"/>
</svg>
